<mxfile host="app.diagrams.net" modified="2024-06-04T08:17:22.033Z" agent="Mozilla/5.0 (Windows NT 10.0; Win64; x64) AppleWebKit/537.36 (KHTML, like Gecko) Chrome/125.0.0.0 Safari/537.36" etag="hQuwOBVDmH8AR5UvdSGR" version="24.2.5" type="device">
  <diagram name="Страница — 1" id="HsdKML7Mbun2V900DYTD">
    <mxGraphModel dx="3854" dy="2364" grid="1" gridSize="10" guides="1" tooltips="1" connect="1" arrows="1" fold="1" page="1" pageScale="1" pageWidth="827" pageHeight="1169" math="0" shadow="0">
      <root>
        <mxCell id="0" />
        <mxCell id="1" parent="0" />
        <mxCell id="cB9pgYuhL3QeFEZIP5lz-66" value="Student" style="swimlane;fontStyle=0;childLayout=stackLayout;horizontal=1;startSize=26;horizontalStack=0;resizeParent=1;resizeParentMax=0;resizeLast=0;collapsible=1;marginBottom=0;align=center;fontSize=14;fillColor=#d5e8d4;strokeColor=#82b366;" parent="1" vertex="1">
          <mxGeometry x="-827" y="-50" width="230" height="176" as="geometry" />
        </mxCell>
        <mxCell id="cB9pgYuhL3QeFEZIP5lz-67" value="Id: string" style="text;strokeColor=#82b366;fillColor=#d5e8d4;spacingLeft=4;spacingRight=4;overflow=hidden;rotatable=0;points=[[0,0.5],[1,0.5]];portConstraint=eastwest;fontSize=12;whiteSpace=wrap;html=1;" parent="cB9pgYuhL3QeFEZIP5lz-66" vertex="1">
          <mxGeometry y="26" width="230" height="30" as="geometry" />
        </mxCell>
        <mxCell id="cB9pgYuhL3QeFEZIP5lz-69" value="GroupId: int?" style="text;strokeColor=#d6b656;fillColor=#fff2cc;spacingLeft=4;spacingRight=4;overflow=hidden;rotatable=0;points=[[0,0.5],[1,0.5]];portConstraint=eastwest;fontSize=12;whiteSpace=wrap;html=1;" parent="cB9pgYuhL3QeFEZIP5lz-66" vertex="1">
          <mxGeometry y="56" width="230" height="30" as="geometry" />
        </mxCell>
        <mxCell id="cB9pgYuhL3QeFEZIP5lz-68" value="PersonId: int" style="text;strokeColor=#9673a6;fillColor=#e1d5e7;spacingLeft=4;spacingRight=4;overflow=hidden;rotatable=0;points=[[0,0.5],[1,0.5]];portConstraint=eastwest;fontSize=12;whiteSpace=wrap;html=1;" parent="cB9pgYuhL3QeFEZIP5lz-66" vertex="1">
          <mxGeometry y="86" width="230" height="30" as="geometry" />
        </mxCell>
        <mxCell id="boajID1xlUHTikhEjVK0-6" value="AddedDate: date" style="text;strokeColor=#666666;fillColor=#f5f5f5;spacingLeft=4;spacingRight=4;overflow=hidden;rotatable=0;points=[[0,0.5],[1,0.5]];portConstraint=eastwest;fontSize=12;whiteSpace=wrap;html=1;fontColor=#000000;" vertex="1" parent="cB9pgYuhL3QeFEZIP5lz-66">
          <mxGeometry y="116" width="230" height="30" as="geometry" />
        </mxCell>
        <mxCell id="boajID1xlUHTikhEjVK0-7" value="RemovedDate: date" style="text;strokeColor=#666666;fillColor=#f5f5f5;spacingLeft=4;spacingRight=4;overflow=hidden;rotatable=0;points=[[0,0.5],[1,0.5]];portConstraint=eastwest;fontSize=12;whiteSpace=wrap;html=1;fontColor=#000000;" vertex="1" parent="cB9pgYuhL3QeFEZIP5lz-66">
          <mxGeometry y="146" width="230" height="30" as="geometry" />
        </mxCell>
        <mxCell id="cB9pgYuhL3QeFEZIP5lz-74" value="Person" style="swimlane;fontStyle=0;childLayout=stackLayout;horizontal=1;startSize=30;horizontalStack=0;resizeParent=1;resizeParentMax=0;resizeLast=0;collapsible=1;marginBottom=0;whiteSpace=wrap;html=1;fillColor=#e1d5e7;strokeColor=#9673a6;" parent="1" vertex="1">
          <mxGeometry x="-827" y="280" width="190" height="300" as="geometry" />
        </mxCell>
        <mxCell id="cB9pgYuhL3QeFEZIP5lz-75" value="Id: int" style="text;strokeColor=#9673a6;fillColor=#e1d5e7;align=left;verticalAlign=middle;spacingLeft=4;spacingRight=4;overflow=hidden;points=[[0,0.5],[1,0.5]];portConstraint=eastwest;rotatable=0;whiteSpace=wrap;html=1;" parent="cB9pgYuhL3QeFEZIP5lz-74" vertex="1">
          <mxGeometry y="30" width="190" height="30" as="geometry" />
        </mxCell>
        <mxCell id="cB9pgYuhL3QeFEZIP5lz-80" value="Passport" style="text;strokeColor=#9673a6;fillColor=#e1d5e7;align=left;verticalAlign=middle;spacingLeft=4;spacingRight=4;overflow=hidden;points=[[0,0.5],[1,0.5]];portConstraint=eastwest;rotatable=0;whiteSpace=wrap;html=1;" parent="cB9pgYuhL3QeFEZIP5lz-74" vertex="1">
          <mxGeometry y="60" width="190" height="30" as="geometry" />
        </mxCell>
        <mxCell id="boajID1xlUHTikhEjVK0-5" value="Student" style="text;strokeColor=#82b366;fillColor=#d5e8d4;align=left;verticalAlign=middle;spacingLeft=4;spacingRight=4;overflow=hidden;points=[[0,0.5],[1,0.5]];portConstraint=eastwest;rotatable=0;whiteSpace=wrap;html=1;" vertex="1" parent="cB9pgYuhL3QeFEZIP5lz-74">
          <mxGeometry y="90" width="190" height="30" as="geometry" />
        </mxCell>
        <mxCell id="cB9pgYuhL3QeFEZIP5lz-76" value="FirstName: varchar (15)" style="text;strokeColor=#666666;fillColor=#f5f5f5;align=left;verticalAlign=middle;spacingLeft=4;spacingRight=4;overflow=hidden;points=[[0,0.5],[1,0.5]];portConstraint=eastwest;rotatable=0;whiteSpace=wrap;html=1;fontColor=#000000;" parent="cB9pgYuhL3QeFEZIP5lz-74" vertex="1">
          <mxGeometry y="120" width="190" height="30" as="geometry" />
        </mxCell>
        <mxCell id="cB9pgYuhL3QeFEZIP5lz-77" value="MiddleName: varchar(25)" style="text;strokeColor=#666666;fillColor=#f5f5f5;align=left;verticalAlign=middle;spacingLeft=4;spacingRight=4;overflow=hidden;points=[[0,0.5],[1,0.5]];portConstraint=eastwest;rotatable=0;whiteSpace=wrap;html=1;fontColor=#000000;" parent="cB9pgYuhL3QeFEZIP5lz-74" vertex="1">
          <mxGeometry y="150" width="190" height="30" as="geometry" />
        </mxCell>
        <mxCell id="cB9pgYuhL3QeFEZIP5lz-78" value="LastName: varchar (20)" style="text;strokeColor=#666666;fillColor=#f5f5f5;align=left;verticalAlign=middle;spacingLeft=4;spacingRight=4;overflow=hidden;points=[[0,0.5],[1,0.5]];portConstraint=eastwest;rotatable=0;whiteSpace=wrap;html=1;fontColor=#000000;" parent="cB9pgYuhL3QeFEZIP5lz-74" vertex="1">
          <mxGeometry y="180" width="190" height="30" as="geometry" />
        </mxCell>
        <mxCell id="cB9pgYuhL3QeFEZIP5lz-79" value="BirthDate: date" style="text;strokeColor=#666666;fillColor=#f5f5f5;align=left;verticalAlign=middle;spacingLeft=4;spacingRight=4;overflow=hidden;points=[[0,0.5],[1,0.5]];portConstraint=eastwest;rotatable=0;whiteSpace=wrap;html=1;fontColor=#000000;" parent="cB9pgYuhL3QeFEZIP5lz-74" vertex="1">
          <mxGeometry y="210" width="190" height="30" as="geometry" />
        </mxCell>
        <mxCell id="boajID1xlUHTikhEjVK0-3" value="Sex: int" style="text;strokeColor=#666666;fillColor=#f5f5f5;align=left;verticalAlign=middle;spacingLeft=4;spacingRight=4;overflow=hidden;points=[[0,0.5],[1,0.5]];portConstraint=eastwest;rotatable=0;whiteSpace=wrap;html=1;fontColor=#000000;" vertex="1" parent="cB9pgYuhL3QeFEZIP5lz-74">
          <mxGeometry y="240" width="190" height="30" as="geometry" />
        </mxCell>
        <mxCell id="boajID1xlUHTikhEjVK0-4" value="AvatarFileName: string" style="text;strokeColor=#666666;fillColor=#f5f5f5;align=left;verticalAlign=middle;spacingLeft=4;spacingRight=4;overflow=hidden;points=[[0,0.5],[1,0.5]];portConstraint=eastwest;rotatable=0;whiteSpace=wrap;html=1;fontColor=#000000;" vertex="1" parent="cB9pgYuhL3QeFEZIP5lz-74">
          <mxGeometry y="270" width="190" height="30" as="geometry" />
        </mxCell>
        <mxCell id="cB9pgYuhL3QeFEZIP5lz-82" value="Passport" style="swimlane;fontStyle=0;childLayout=stackLayout;horizontal=1;startSize=30;horizontalStack=0;resizeParent=1;resizeParentMax=0;resizeLast=0;collapsible=1;marginBottom=0;whiteSpace=wrap;html=1;fillColor=#76608a;strokeColor=#432D57;fontColor=#ffffff;" parent="1" vertex="1">
          <mxGeometry x="-1110" y="400" width="190" height="120" as="geometry" />
        </mxCell>
        <mxCell id="cB9pgYuhL3QeFEZIP5lz-83" value="Id: int" style="text;strokeColor=#432D57;fillColor=#76608a;align=left;verticalAlign=middle;spacingLeft=4;spacingRight=4;overflow=hidden;points=[[0,0.5],[1,0.5]];portConstraint=eastwest;rotatable=0;whiteSpace=wrap;html=1;fontColor=#ffffff;" parent="cB9pgYuhL3QeFEZIP5lz-82" vertex="1">
          <mxGeometry y="30" width="190" height="30" as="geometry" />
        </mxCell>
        <mxCell id="cB9pgYuhL3QeFEZIP5lz-89" value="ScanFileName: string&lt;span style=&quot;white-space: pre;&quot;&gt;&#x9;&lt;/span&gt;" style="text;strokeColor=#666666;fillColor=#f5f5f5;align=left;verticalAlign=middle;spacingLeft=4;spacingRight=4;overflow=hidden;points=[[0,0.5],[1,0.5]];portConstraint=eastwest;rotatable=0;whiteSpace=wrap;html=1;fontColor=#000000;" parent="cB9pgYuhL3QeFEZIP5lz-82" vertex="1">
          <mxGeometry y="60" width="190" height="30" as="geometry" />
        </mxCell>
        <mxCell id="boajID1xlUHTikhEjVK0-2" value="PersonId: int" style="text;strokeColor=#666666;fillColor=#f5f5f5;align=left;verticalAlign=middle;spacingLeft=4;spacingRight=4;overflow=hidden;points=[[0,0.5],[1,0.5]];portConstraint=eastwest;rotatable=0;whiteSpace=wrap;html=1;fontColor=#000000;" vertex="1" parent="cB9pgYuhL3QeFEZIP5lz-82">
          <mxGeometry y="90" width="190" height="30" as="geometry" />
        </mxCell>
        <mxCell id="cB9pgYuhL3QeFEZIP5lz-93" style="edgeStyle=orthogonalEdgeStyle;rounded=1;orthogonalLoop=1;jettySize=auto;html=1;curved=0;endArrow=ERmandOne;endFill=0;startArrow=ERzeroToOne;startFill=0;" parent="1" source="cB9pgYuhL3QeFEZIP5lz-68" target="boajID1xlUHTikhEjVK0-5" edge="1">
          <mxGeometry relative="1" as="geometry">
            <Array as="points">
              <mxPoint x="-870" y="51" />
              <mxPoint x="-870" y="240" />
              <mxPoint x="-600" y="240" />
              <mxPoint x="-600" y="385" />
            </Array>
          </mxGeometry>
        </mxCell>
        <mxCell id="cB9pgYuhL3QeFEZIP5lz-94" style="edgeStyle=orthogonalEdgeStyle;rounded=1;orthogonalLoop=1;jettySize=auto;html=1;curved=0;startArrow=ERmandOne;startFill=0;endArrow=ERmandOne;endFill=0;" parent="1" source="cB9pgYuhL3QeFEZIP5lz-80" target="cB9pgYuhL3QeFEZIP5lz-82" edge="1">
          <mxGeometry relative="1" as="geometry" />
        </mxCell>
        <mxCell id="cB9pgYuhL3QeFEZIP5lz-95" value="Group" style="swimlane;fontStyle=0;childLayout=stackLayout;horizontal=1;startSize=30;horizontalStack=0;resizeParent=1;resizeParentMax=0;resizeLast=0;collapsible=1;marginBottom=0;whiteSpace=wrap;html=1;fillColor=#fff2cc;strokeColor=#d6b656;" parent="1" vertex="1">
          <mxGeometry x="-400" y="-100" width="220" height="240" as="geometry">
            <mxRectangle x="-430" y="140" width="70" height="30" as="alternateBounds" />
          </mxGeometry>
        </mxCell>
        <mxCell id="cB9pgYuhL3QeFEZIP5lz-96" value="Id: int" style="text;strokeColor=#d6b656;fillColor=#fff2cc;align=left;verticalAlign=middle;spacingLeft=4;spacingRight=4;overflow=hidden;points=[[0,0.5],[1,0.5]];portConstraint=eastwest;rotatable=0;whiteSpace=wrap;html=1;" parent="cB9pgYuhL3QeFEZIP5lz-95" vertex="1">
          <mxGeometry y="30" width="220" height="30" as="geometry" />
        </mxCell>
        <mxCell id="cB9pgYuhL3QeFEZIP5lz-101" value="StudentList: Student list" style="text;strokeColor=#82b366;fillColor=#d5e8d4;align=left;verticalAlign=middle;spacingLeft=4;spacingRight=4;overflow=hidden;points=[[0,0.5],[1,0.5]];portConstraint=eastwest;rotatable=0;whiteSpace=wrap;html=1;" parent="cB9pgYuhL3QeFEZIP5lz-95" vertex="1">
          <mxGeometry y="60" width="220" height="30" as="geometry" />
        </mxCell>
        <mxCell id="cB9pgYuhL3QeFEZIP5lz-102" value="SubjectList: Subject list" style="text;strokeColor=#d79b00;fillColor=#ffe6cc;align=left;verticalAlign=middle;spacingLeft=4;spacingRight=4;overflow=hidden;points=[[0,0.5],[1,0.5]];portConstraint=eastwest;rotatable=0;whiteSpace=wrap;html=1;" parent="cB9pgYuhL3QeFEZIP5lz-95" vertex="1">
          <mxGeometry y="90" width="220" height="30" as="geometry" />
        </mxCell>
        <mxCell id="cB9pgYuhL3QeFEZIP5lz-99" value="CuratorId: string" style="text;align=left;verticalAlign=middle;spacingLeft=4;spacingRight=4;overflow=hidden;points=[[0,0.5],[1,0.5]];portConstraint=eastwest;rotatable=0;whiteSpace=wrap;html=1;fillColor=#f8cecc;strokeColor=#b85450;" parent="cB9pgYuhL3QeFEZIP5lz-95" vertex="1">
          <mxGeometry y="120" width="220" height="30" as="geometry" />
        </mxCell>
        <mxCell id="cB9pgYuhL3QeFEZIP5lz-97" value="Name: varchar(10)" style="text;align=left;verticalAlign=middle;spacingLeft=4;spacingRight=4;overflow=hidden;points=[[0,0.5],[1,0.5]];portConstraint=eastwest;rotatable=0;whiteSpace=wrap;html=1;fillColor=#f5f5f5;fontColor=#000000;strokeColor=#666666;" parent="cB9pgYuhL3QeFEZIP5lz-95" vertex="1">
          <mxGeometry y="150" width="220" height="30" as="geometry" />
        </mxCell>
        <mxCell id="cB9pgYuhL3QeFEZIP5lz-98" value="Description: varchar(70)" style="text;strokeColor=#666666;fillColor=#f5f5f5;align=left;verticalAlign=middle;spacingLeft=4;spacingRight=4;overflow=hidden;points=[[0,0.5],[1,0.5]];portConstraint=eastwest;rotatable=0;whiteSpace=wrap;html=1;fontColor=#000000;" parent="cB9pgYuhL3QeFEZIP5lz-95" vertex="1">
          <mxGeometry y="180" width="220" height="30" as="geometry" />
        </mxCell>
        <mxCell id="cB9pgYuhL3QeFEZIP5lz-100" value="AuditoryName: varchar(5)" style="text;strokeColor=#666666;fillColor=#f5f5f5;align=left;verticalAlign=middle;spacingLeft=4;spacingRight=4;overflow=hidden;points=[[0,0.5],[1,0.5]];portConstraint=eastwest;rotatable=0;whiteSpace=wrap;html=1;fontColor=#000000;" parent="cB9pgYuhL3QeFEZIP5lz-95" vertex="1">
          <mxGeometry y="210" width="220" height="30" as="geometry" />
        </mxCell>
        <mxCell id="cB9pgYuhL3QeFEZIP5lz-103" style="edgeStyle=orthogonalEdgeStyle;rounded=1;orthogonalLoop=1;jettySize=auto;html=1;curved=0;endArrow=ERzeroToOne;endFill=0;startArrow=ERzeroToMany;startFill=0;entryX=0;entryY=0.5;entryDx=0;entryDy=0;" parent="1" source="cB9pgYuhL3QeFEZIP5lz-69" target="cB9pgYuhL3QeFEZIP5lz-101" edge="1">
          <mxGeometry relative="1" as="geometry">
            <Array as="points">
              <mxPoint x="-490" y="20" />
              <mxPoint x="-490" y="-25" />
            </Array>
          </mxGeometry>
        </mxCell>
        <mxCell id="1ycy2b3usY0TTcdBJOMy-2" value="Subject" style="swimlane;fontStyle=0;childLayout=stackLayout;horizontal=1;startSize=30;horizontalStack=0;resizeParent=1;resizeParentMax=0;resizeLast=0;collapsible=1;marginBottom=0;whiteSpace=wrap;html=1;fillColor=#ffe6cc;strokeColor=#d79b00;" parent="1" vertex="1">
          <mxGeometry x="-30" y="-100" width="220" height="210" as="geometry">
            <mxRectangle x="-430" y="140" width="70" height="30" as="alternateBounds" />
          </mxGeometry>
        </mxCell>
        <mxCell id="1ycy2b3usY0TTcdBJOMy-3" value="Id: int" style="text;strokeColor=#d79b00;fillColor=#ffe6cc;align=left;verticalAlign=middle;spacingLeft=4;spacingRight=4;overflow=hidden;points=[[0,0.5],[1,0.5]];portConstraint=eastwest;rotatable=0;whiteSpace=wrap;html=1;" parent="1ycy2b3usY0TTcdBJOMy-2" vertex="1">
          <mxGeometry y="30" width="220" height="30" as="geometry" />
        </mxCell>
        <mxCell id="boajID1xlUHTikhEjVK0-8" value="GroupId: int" style="text;strokeColor=#d6b656;fillColor=#fff2cc;align=left;verticalAlign=middle;spacingLeft=4;spacingRight=4;overflow=hidden;points=[[0,0.5],[1,0.5]];portConstraint=eastwest;rotatable=0;whiteSpace=wrap;html=1;" vertex="1" parent="1ycy2b3usY0TTcdBJOMy-2">
          <mxGeometry y="60" width="220" height="30" as="geometry" />
        </mxCell>
        <mxCell id="1ycy2b3usY0TTcdBJOMy-10" value="TeacherId: string" style="text;align=left;verticalAlign=middle;spacingLeft=4;spacingRight=4;overflow=hidden;points=[[0,0.5],[1,0.5]];portConstraint=eastwest;rotatable=0;whiteSpace=wrap;html=1;fillColor=#f8cecc;strokeColor=#b85450;" parent="1ycy2b3usY0TTcdBJOMy-2" vertex="1">
          <mxGeometry y="90" width="220" height="30" as="geometry" />
        </mxCell>
        <mxCell id="1ycy2b3usY0TTcdBJOMy-5" value="Name: varchar(100)" style="text;strokeColor=#666666;fillColor=#f5f5f5;align=left;verticalAlign=middle;spacingLeft=4;spacingRight=4;overflow=hidden;points=[[0,0.5],[1,0.5]];portConstraint=eastwest;rotatable=0;whiteSpace=wrap;html=1;fontColor=#000000;" parent="1ycy2b3usY0TTcdBJOMy-2" vertex="1">
          <mxGeometry y="120" width="220" height="30" as="geometry" />
        </mxCell>
        <mxCell id="1ycy2b3usY0TTcdBJOMy-7" value="Description: varchar(150)" style="text;strokeColor=#666666;fillColor=#f5f5f5;align=left;verticalAlign=middle;spacingLeft=4;spacingRight=4;overflow=hidden;points=[[0,0.5],[1,0.5]];portConstraint=eastwest;rotatable=0;whiteSpace=wrap;html=1;fontColor=#000000;" parent="1ycy2b3usY0TTcdBJOMy-2" vertex="1">
          <mxGeometry y="150" width="220" height="30" as="geometry" />
        </mxCell>
        <mxCell id="1ycy2b3usY0TTcdBJOMy-12" value="GradeModelList: GradeModel list" style="text;strokeColor=#666666;fillColor=#f5f5f5;align=left;verticalAlign=middle;spacingLeft=4;spacingRight=4;overflow=hidden;points=[[0,0.5],[1,0.5]];portConstraint=eastwest;rotatable=0;whiteSpace=wrap;html=1;fontColor=#000000;" parent="1ycy2b3usY0TTcdBJOMy-2" vertex="1">
          <mxGeometry y="180" width="220" height="30" as="geometry" />
        </mxCell>
        <mxCell id="1ycy2b3usY0TTcdBJOMy-11" style="edgeStyle=orthogonalEdgeStyle;rounded=1;orthogonalLoop=1;jettySize=auto;html=1;endArrow=ERoneToMany;endFill=0;startArrow=ERmandOne;startFill=0;curved=0;exitX=1;exitY=0.5;exitDx=0;exitDy=0;entryX=0;entryY=0.5;entryDx=0;entryDy=0;" parent="1" source="cB9pgYuhL3QeFEZIP5lz-102" target="boajID1xlUHTikhEjVK0-8" edge="1">
          <mxGeometry relative="1" as="geometry">
            <Array as="points">
              <mxPoint x="-110" y="5" />
              <mxPoint x="-110" y="-25" />
            </Array>
          </mxGeometry>
        </mxCell>
        <mxCell id="1ycy2b3usY0TTcdBJOMy-13" value="GradeModel" style="swimlane;fontStyle=0;childLayout=stackLayout;horizontal=1;startSize=30;horizontalStack=0;resizeParent=1;resizeParentMax=0;resizeLast=0;collapsible=1;marginBottom=0;whiteSpace=wrap;html=1;fillColor=#DAE8FC;strokeColor=#6c8ebf;" parent="1" vertex="1">
          <mxGeometry x="-350" y="-450" width="220" height="180" as="geometry">
            <mxRectangle x="-430" y="140" width="70" height="30" as="alternateBounds" />
          </mxGeometry>
        </mxCell>
        <mxCell id="1ycy2b3usY0TTcdBJOMy-14" value="Id: string" style="text;strokeColor=#6c8ebf;fillColor=#dae8fc;align=left;verticalAlign=middle;spacingLeft=4;spacingRight=4;overflow=hidden;points=[[0,0.5],[1,0.5]];portConstraint=eastwest;rotatable=0;whiteSpace=wrap;html=1;" parent="1ycy2b3usY0TTcdBJOMy-13" vertex="1">
          <mxGeometry y="30" width="220" height="30" as="geometry" />
        </mxCell>
        <mxCell id="1ycy2b3usY0TTcdBJOMy-17" value="SubjectId: int" style="text;strokeColor=#d79b00;fillColor=#ffe6cc;align=left;verticalAlign=middle;spacingLeft=4;spacingRight=4;overflow=hidden;points=[[0,0.5],[1,0.5]];portConstraint=eastwest;rotatable=0;whiteSpace=wrap;html=1;" parent="1ycy2b3usY0TTcdBJOMy-13" vertex="1">
          <mxGeometry y="60" width="220" height="30" as="geometry" />
        </mxCell>
        <mxCell id="boajID1xlUHTikhEjVK0-10" value="GradeType" style="text;align=left;verticalAlign=middle;spacingLeft=4;spacingRight=4;overflow=hidden;points=[[0,0.5],[1,0.5]];portConstraint=eastwest;rotatable=0;whiteSpace=wrap;html=1;fillColor=#6C9FE2;fontColor=#000000;strokeColor=#666666;" vertex="1" parent="1ycy2b3usY0TTcdBJOMy-13">
          <mxGeometry y="90" width="220" height="30" as="geometry" />
        </mxCell>
        <mxCell id="boajID1xlUHTikhEjVK0-11" value="GradeList: Grade list" style="text;align=left;verticalAlign=middle;spacingLeft=4;spacingRight=4;overflow=hidden;points=[[0,0.5],[1,0.5]];portConstraint=eastwest;rotatable=0;whiteSpace=wrap;html=1;fillColor=#AAB5C4;fontColor=#000000;strokeColor=#3700CC;" vertex="1" parent="1ycy2b3usY0TTcdBJOMy-13">
          <mxGeometry y="120" width="220" height="30" as="geometry" />
        </mxCell>
        <mxCell id="boajID1xlUHTikhEjVK0-9" value="SetDate: date" style="text;align=left;verticalAlign=middle;spacingLeft=4;spacingRight=4;overflow=hidden;points=[[0,0.5],[1,0.5]];portConstraint=eastwest;rotatable=0;whiteSpace=wrap;html=1;fillColor=#f5f5f5;fontColor=#000000;strokeColor=#666666;" vertex="1" parent="1ycy2b3usY0TTcdBJOMy-13">
          <mxGeometry y="150" width="220" height="30" as="geometry" />
        </mxCell>
        <mxCell id="1ycy2b3usY0TTcdBJOMy-21" style="edgeStyle=orthogonalEdgeStyle;rounded=1;orthogonalLoop=1;jettySize=auto;html=1;endArrow=ERmandOne;endFill=0;startArrow=ERzeroToMany;startFill=0;curved=0;" parent="1" source="1ycy2b3usY0TTcdBJOMy-17" target="1ycy2b3usY0TTcdBJOMy-2" edge="1">
          <mxGeometry relative="1" as="geometry" />
        </mxCell>
        <mxCell id="1ycy2b3usY0TTcdBJOMy-22" style="edgeStyle=orthogonalEdgeStyle;rounded=1;orthogonalLoop=1;jettySize=auto;html=1;endArrow=ERmandOne;endFill=0;startArrow=ERoneToMany;startFill=0;curved=0;exitX=0;exitY=0.5;exitDx=0;exitDy=0;" parent="1" source="boajID1xlUHTikhEjVK0-14" target="cB9pgYuhL3QeFEZIP5lz-66" edge="1">
          <mxGeometry relative="1" as="geometry">
            <mxPoint x="-712" y="-270" as="sourcePoint" />
          </mxGeometry>
        </mxCell>
        <mxCell id="boajID1xlUHTikhEjVK0-12" value="Grade" style="swimlane;fontStyle=0;childLayout=stackLayout;horizontal=1;startSize=30;horizontalStack=0;resizeParent=1;resizeParentMax=0;resizeLast=0;collapsible=1;marginBottom=0;whiteSpace=wrap;html=1;fillColor=#AAB5C4;strokeColor=#6c8ebf;fontColor=#000000;" vertex="1" parent="1">
          <mxGeometry x="-670" y="-280" width="220" height="150" as="geometry">
            <mxRectangle x="-430" y="140" width="70" height="30" as="alternateBounds" />
          </mxGeometry>
        </mxCell>
        <mxCell id="boajID1xlUHTikhEjVK0-13" value="Id: int" style="text;strokeColor=#6c8ebf;fillColor=#AAB5C4;align=left;verticalAlign=middle;spacingLeft=4;spacingRight=4;overflow=hidden;points=[[0,0.5],[1,0.5]];portConstraint=eastwest;rotatable=0;whiteSpace=wrap;html=1;fontColor=#000000;" vertex="1" parent="boajID1xlUHTikhEjVK0-12">
          <mxGeometry y="30" width="220" height="30" as="geometry" />
        </mxCell>
        <mxCell id="boajID1xlUHTikhEjVK0-14" value="StudentId: string" style="text;strokeColor=#82b366;fillColor=#d5e8d4;align=left;verticalAlign=middle;spacingLeft=4;spacingRight=4;overflow=hidden;points=[[0,0.5],[1,0.5]];portConstraint=eastwest;rotatable=0;whiteSpace=wrap;html=1;" vertex="1" parent="boajID1xlUHTikhEjVK0-12">
          <mxGeometry y="60" width="220" height="30" as="geometry" />
        </mxCell>
        <mxCell id="boajID1xlUHTikhEjVK0-15" value="GradeModelId: string" style="text;align=left;verticalAlign=middle;spacingLeft=4;spacingRight=4;overflow=hidden;points=[[0,0.5],[1,0.5]];portConstraint=eastwest;rotatable=0;whiteSpace=wrap;html=1;fillColor=#DAE8FC;strokeColor=#10739e;" vertex="1" parent="boajID1xlUHTikhEjVK0-12">
          <mxGeometry y="90" width="220" height="30" as="geometry" />
        </mxCell>
        <mxCell id="boajID1xlUHTikhEjVK0-17" value="Value: int" style="text;align=left;verticalAlign=middle;spacingLeft=4;spacingRight=4;overflow=hidden;points=[[0,0.5],[1,0.5]];portConstraint=eastwest;rotatable=0;whiteSpace=wrap;html=1;fillColor=#f5f5f5;fontColor=#000000;strokeColor=#666666;" vertex="1" parent="boajID1xlUHTikhEjVK0-12">
          <mxGeometry y="120" width="220" height="30" as="geometry" />
        </mxCell>
        <mxCell id="boajID1xlUHTikhEjVK0-18" style="edgeStyle=orthogonalEdgeStyle;rounded=1;orthogonalLoop=1;jettySize=auto;html=1;entryX=0;entryY=0.75;entryDx=0;entryDy=0;endArrow=ERmandOne;endFill=0;curved=0;startArrow=ERzeroToMany;startFill=0;" edge="1" parent="1" source="boajID1xlUHTikhEjVK0-15" target="1ycy2b3usY0TTcdBJOMy-13">
          <mxGeometry relative="1" as="geometry" />
        </mxCell>
        <mxCell id="boajID1xlUHTikhEjVK0-19" value="GradeModel" style="swimlane;fontStyle=0;childLayout=stackLayout;horizontal=1;startSize=30;horizontalStack=0;resizeParent=1;resizeParentMax=0;resizeLast=0;collapsible=1;marginBottom=0;whiteSpace=wrap;html=1;fillColor=#6C9FE2;strokeColor=#006EAF;fontColor=#000000;" vertex="1" parent="1">
          <mxGeometry x="-350" y="-230" width="220" height="90" as="geometry">
            <mxRectangle x="-430" y="140" width="70" height="30" as="alternateBounds" />
          </mxGeometry>
        </mxCell>
        <mxCell id="boajID1xlUHTikhEjVK0-20" value="Id: string" style="text;strokeColor=#6C9FE2;fillColor=#6C9FE2;align=left;verticalAlign=middle;spacingLeft=4;spacingRight=4;overflow=hidden;points=[[0,0.5],[1,0.5]];portConstraint=eastwest;rotatable=0;whiteSpace=wrap;html=1;" vertex="1" parent="boajID1xlUHTikhEjVK0-19">
          <mxGeometry y="30" width="220" height="30" as="geometry" />
        </mxCell>
        <mxCell id="boajID1xlUHTikhEjVK0-22" value="Name: string" style="text;align=left;verticalAlign=middle;spacingLeft=4;spacingRight=4;overflow=hidden;points=[[0,0.5],[1,0.5]];portConstraint=eastwest;rotatable=0;whiteSpace=wrap;html=1;fillColor=#f5f5f5;fontColor=#000000;strokeColor=#666666;" vertex="1" parent="boajID1xlUHTikhEjVK0-19">
          <mxGeometry y="60" width="220" height="30" as="geometry" />
        </mxCell>
        <mxCell id="boajID1xlUHTikhEjVK0-25" style="edgeStyle=orthogonalEdgeStyle;rounded=1;orthogonalLoop=1;jettySize=auto;html=1;endArrow=ERmandOne;endFill=0;startArrow=ERzeroToMany;startFill=0;curved=0;" edge="1" parent="1" source="boajID1xlUHTikhEjVK0-10" target="boajID1xlUHTikhEjVK0-19">
          <mxGeometry relative="1" as="geometry">
            <Array as="points">
              <mxPoint x="-50" y="-345" />
              <mxPoint x="-50" y="-250" />
              <mxPoint x="-240" y="-250" />
            </Array>
          </mxGeometry>
        </mxCell>
        <mxCell id="boajID1xlUHTikhEjVK0-26" value="User" style="swimlane;fontStyle=0;childLayout=stackLayout;horizontal=1;startSize=30;horizontalStack=0;resizeParent=1;resizeParentMax=0;resizeLast=0;collapsible=1;marginBottom=0;whiteSpace=wrap;html=1;fillColor=#f8cecc;strokeColor=#b85450;" vertex="1" parent="1">
          <mxGeometry x="-400" y="240" width="220" height="270" as="geometry">
            <mxRectangle x="-430" y="140" width="70" height="30" as="alternateBounds" />
          </mxGeometry>
        </mxCell>
        <mxCell id="boajID1xlUHTikhEjVK0-27" value="Id: string" style="text;strokeColor=#b85450;fillColor=#f8cecc;align=left;verticalAlign=middle;spacingLeft=4;spacingRight=4;overflow=hidden;points=[[0,0.5],[1,0.5]];portConstraint=eastwest;rotatable=0;whiteSpace=wrap;html=1;" vertex="1" parent="boajID1xlUHTikhEjVK0-26">
          <mxGeometry y="30" width="220" height="30" as="geometry" />
        </mxCell>
        <mxCell id="boajID1xlUHTikhEjVK0-29" value="Login: string" style="text;align=left;verticalAlign=middle;spacingLeft=4;spacingRight=4;overflow=hidden;points=[[0,0.5],[1,0.5]];portConstraint=eastwest;rotatable=0;whiteSpace=wrap;html=1;fillColor=#f5f5f5;fontColor=#000000;strokeColor=#666666;" vertex="1" parent="boajID1xlUHTikhEjVK0-26">
          <mxGeometry y="60" width="220" height="30" as="geometry" />
        </mxCell>
        <mxCell id="boajID1xlUHTikhEjVK0-40" value="RoleList: Role List" style="text;strokeColor=#666666;fillColor=#FAB67A;align=left;verticalAlign=middle;spacingLeft=4;spacingRight=4;overflow=hidden;points=[[0,0.5],[1,0.5]];portConstraint=eastwest;rotatable=0;whiteSpace=wrap;html=1;fontColor=#000000;" vertex="1" parent="boajID1xlUHTikhEjVK0-26">
          <mxGeometry y="90" width="220" height="30" as="geometry" />
        </mxCell>
        <mxCell id="boajID1xlUHTikhEjVK0-33" value="FirstName: varchar (15)" style="text;strokeColor=#666666;fillColor=#f5f5f5;align=left;verticalAlign=middle;spacingLeft=4;spacingRight=4;overflow=hidden;points=[[0,0.5],[1,0.5]];portConstraint=eastwest;rotatable=0;whiteSpace=wrap;html=1;fontColor=#000000;" vertex="1" parent="boajID1xlUHTikhEjVK0-26">
          <mxGeometry y="120" width="220" height="30" as="geometry" />
        </mxCell>
        <mxCell id="boajID1xlUHTikhEjVK0-35" value="LastName: varchar (20)" style="text;strokeColor=#666666;fillColor=#f5f5f5;align=left;verticalAlign=middle;spacingLeft=4;spacingRight=4;overflow=hidden;points=[[0,0.5],[1,0.5]];portConstraint=eastwest;rotatable=0;whiteSpace=wrap;html=1;fontColor=#000000;" vertex="1" parent="boajID1xlUHTikhEjVK0-26">
          <mxGeometry y="150" width="220" height="30" as="geometry" />
        </mxCell>
        <mxCell id="boajID1xlUHTikhEjVK0-34" value="MiddleName: varchar(25)" style="text;strokeColor=#666666;fillColor=#f5f5f5;align=left;verticalAlign=middle;spacingLeft=4;spacingRight=4;overflow=hidden;points=[[0,0.5],[1,0.5]];portConstraint=eastwest;rotatable=0;whiteSpace=wrap;html=1;fontColor=#000000;" vertex="1" parent="boajID1xlUHTikhEjVK0-26">
          <mxGeometry y="180" width="220" height="30" as="geometry" />
        </mxCell>
        <mxCell id="boajID1xlUHTikhEjVK0-32" value="PasswordHash: string" style="text;strokeColor=#666666;fillColor=#f5f5f5;align=left;verticalAlign=middle;spacingLeft=4;spacingRight=4;overflow=hidden;points=[[0,0.5],[1,0.5]];portConstraint=eastwest;rotatable=0;whiteSpace=wrap;html=1;fontColor=#000000;" vertex="1" parent="boajID1xlUHTikhEjVK0-26">
          <mxGeometry y="210" width="220" height="30" as="geometry" />
        </mxCell>
        <mxCell id="boajID1xlUHTikhEjVK0-36" value="DateCreated: date" style="text;strokeColor=#666666;fillColor=#f5f5f5;align=left;verticalAlign=middle;spacingLeft=4;spacingRight=4;overflow=hidden;points=[[0,0.5],[1,0.5]];portConstraint=eastwest;rotatable=0;whiteSpace=wrap;html=1;fontColor=#000000;" vertex="1" parent="boajID1xlUHTikhEjVK0-26">
          <mxGeometry y="240" width="220" height="30" as="geometry" />
        </mxCell>
        <mxCell id="boajID1xlUHTikhEjVK0-37" style="edgeStyle=orthogonalEdgeStyle;rounded=1;orthogonalLoop=1;jettySize=auto;html=1;entryX=0;entryY=0.5;entryDx=0;entryDy=0;curved=0;startArrow=none;startFill=0;endArrow=ERmandOne;endFill=0;" edge="1" parent="1" source="cB9pgYuhL3QeFEZIP5lz-99" target="boajID1xlUHTikhEjVK0-27">
          <mxGeometry relative="1" as="geometry" />
        </mxCell>
        <mxCell id="boajID1xlUHTikhEjVK0-38" style="edgeStyle=orthogonalEdgeStyle;rounded=1;orthogonalLoop=1;jettySize=auto;html=1;curved=0;endArrow=ERmandOne;endFill=0;" edge="1" parent="1" source="1ycy2b3usY0TTcdBJOMy-10" target="boajID1xlUHTikhEjVK0-27">
          <mxGeometry relative="1" as="geometry" />
        </mxCell>
        <mxCell id="boajID1xlUHTikhEjVK0-39" style="edgeStyle=orthogonalEdgeStyle;rounded=1;orthogonalLoop=1;jettySize=auto;html=1;curved=0;endArrow=ERmandOne;endFill=0;" edge="1" parent="1" source="cB9pgYuhL3QeFEZIP5lz-67" target="boajID1xlUHTikhEjVK0-27">
          <mxGeometry relative="1" as="geometry">
            <Array as="points">
              <mxPoint x="-520" y="-9" />
              <mxPoint x="-520" y="285" />
            </Array>
          </mxGeometry>
        </mxCell>
        <mxCell id="boajID1xlUHTikhEjVK0-41" value="Role" style="swimlane;fontStyle=0;childLayout=stackLayout;horizontal=1;startSize=30;horizontalStack=0;resizeParent=1;resizeParentMax=0;resizeLast=0;collapsible=1;marginBottom=0;whiteSpace=wrap;html=1;fillColor=#FAB67A;strokeColor=#C73500;fontColor=#000000;" vertex="1" parent="1">
          <mxGeometry x="100" y="240" width="220" height="150" as="geometry">
            <mxRectangle x="-430" y="140" width="70" height="30" as="alternateBounds" />
          </mxGeometry>
        </mxCell>
        <mxCell id="boajID1xlUHTikhEjVK0-42" value="Id: int" style="text;strokeColor=#C73500;fillColor=#FAB67A;align=left;verticalAlign=middle;spacingLeft=4;spacingRight=4;overflow=hidden;points=[[0,0.5],[1,0.5]];portConstraint=eastwest;rotatable=0;whiteSpace=wrap;html=1;fontColor=#000000;" vertex="1" parent="boajID1xlUHTikhEjVK0-41">
          <mxGeometry y="30" width="220" height="30" as="geometry" />
        </mxCell>
        <mxCell id="boajID1xlUHTikhEjVK0-44" value="UserList: User list" style="text;strokeColor=#b85450;fillColor=#f8cecc;align=left;verticalAlign=middle;spacingLeft=4;spacingRight=4;overflow=hidden;points=[[0,0.5],[1,0.5]];portConstraint=eastwest;rotatable=0;whiteSpace=wrap;html=1;" vertex="1" parent="boajID1xlUHTikhEjVK0-41">
          <mxGeometry y="60" width="220" height="30" as="geometry" />
        </mxCell>
        <mxCell id="boajID1xlUHTikhEjVK0-45" value="PermissionList: Permission list" style="text;strokeColor=#666666;fillColor=#E3CE46;align=left;verticalAlign=middle;spacingLeft=4;spacingRight=4;overflow=hidden;points=[[0,0.5],[1,0.5]];portConstraint=eastwest;rotatable=0;whiteSpace=wrap;html=1;fontColor=#000000;" vertex="1" parent="boajID1xlUHTikhEjVK0-41">
          <mxGeometry y="90" width="220" height="30" as="geometry" />
        </mxCell>
        <mxCell id="boajID1xlUHTikhEjVK0-43" value="Name: string" style="text;align=left;verticalAlign=middle;spacingLeft=4;spacingRight=4;overflow=hidden;points=[[0,0.5],[1,0.5]];portConstraint=eastwest;rotatable=0;whiteSpace=wrap;html=1;fillColor=#f5f5f5;fontColor=#000000;strokeColor=#666666;" vertex="1" parent="boajID1xlUHTikhEjVK0-41">
          <mxGeometry y="120" width="220" height="30" as="geometry" />
        </mxCell>
        <mxCell id="boajID1xlUHTikhEjVK0-50" value="UserRole" style="swimlane;fontStyle=0;childLayout=stackLayout;horizontal=1;startSize=30;horizontalStack=0;resizeParent=1;resizeParentMax=0;resizeLast=0;collapsible=1;marginBottom=0;whiteSpace=wrap;html=1;fillColor=#647687;strokeColor=#314354;fontColor=#ffffff;" vertex="1" parent="1">
          <mxGeometry x="-110" y="330" width="160" height="90" as="geometry">
            <mxRectangle x="-430" y="140" width="70" height="30" as="alternateBounds" />
          </mxGeometry>
        </mxCell>
        <mxCell id="boajID1xlUHTikhEjVK0-52" value="UserId: string" style="text;strokeColor=#b85450;fillColor=#f8cecc;align=left;verticalAlign=middle;spacingLeft=4;spacingRight=4;overflow=hidden;points=[[0,0.5],[1,0.5]];portConstraint=eastwest;rotatable=0;whiteSpace=wrap;html=1;" vertex="1" parent="boajID1xlUHTikhEjVK0-50">
          <mxGeometry y="30" width="160" height="30" as="geometry" />
        </mxCell>
        <mxCell id="boajID1xlUHTikhEjVK0-51" value="RoleId: int" style="text;strokeColor=#C73500;fillColor=#FAB67A;align=left;verticalAlign=middle;spacingLeft=4;spacingRight=4;overflow=hidden;points=[[0,0.5],[1,0.5]];portConstraint=eastwest;rotatable=0;whiteSpace=wrap;html=1;fontColor=#000000;" vertex="1" parent="boajID1xlUHTikhEjVK0-50">
          <mxGeometry y="60" width="160" height="30" as="geometry" />
        </mxCell>
        <mxCell id="boajID1xlUHTikhEjVK0-55" style="edgeStyle=orthogonalEdgeStyle;rounded=1;orthogonalLoop=1;jettySize=auto;html=1;entryX=0;entryY=0.5;entryDx=0;entryDy=0;curved=0;endArrow=ERoneToMany;endFill=0;startArrow=ERmandOne;startFill=0;" edge="1" parent="1" source="boajID1xlUHTikhEjVK0-40" target="boajID1xlUHTikhEjVK0-51">
          <mxGeometry relative="1" as="geometry" />
        </mxCell>
        <mxCell id="boajID1xlUHTikhEjVK0-56" style="edgeStyle=orthogonalEdgeStyle;rounded=1;orthogonalLoop=1;jettySize=auto;html=1;exitX=1;exitY=0.5;exitDx=0;exitDy=0;curved=0;endArrow=ERmandOne;endFill=0;startArrow=ERzeroToMany;startFill=0;" edge="1" parent="1" source="boajID1xlUHTikhEjVK0-52" target="boajID1xlUHTikhEjVK0-44">
          <mxGeometry relative="1" as="geometry" />
        </mxCell>
        <mxCell id="boajID1xlUHTikhEjVK0-57" value="Permission" style="swimlane;fontStyle=0;childLayout=stackLayout;horizontal=1;startSize=30;horizontalStack=0;resizeParent=1;resizeParentMax=0;resizeLast=0;collapsible=1;marginBottom=0;whiteSpace=wrap;html=1;fillColor=#E3CE46;strokeColor=#B09500;fontColor=#000000;" vertex="1" parent="1">
          <mxGeometry x="100" y="530" width="220" height="120" as="geometry">
            <mxRectangle x="-430" y="140" width="70" height="30" as="alternateBounds" />
          </mxGeometry>
        </mxCell>
        <mxCell id="boajID1xlUHTikhEjVK0-58" value="Id: int" style="text;strokeColor=#C73500;fillColor=#E3CE46;align=left;verticalAlign=middle;spacingLeft=4;spacingRight=4;overflow=hidden;points=[[0,0.5],[1,0.5]];portConstraint=eastwest;rotatable=0;whiteSpace=wrap;html=1;fontColor=#000000;" vertex="1" parent="boajID1xlUHTikhEjVK0-57">
          <mxGeometry y="30" width="220" height="30" as="geometry" />
        </mxCell>
        <mxCell id="boajID1xlUHTikhEjVK0-59" value="RoleList: Role list" style="text;strokeColor=#b85450;fillColor=#FAB67A;align=left;verticalAlign=middle;spacingLeft=4;spacingRight=4;overflow=hidden;points=[[0,0.5],[1,0.5]];portConstraint=eastwest;rotatable=0;whiteSpace=wrap;html=1;" vertex="1" parent="boajID1xlUHTikhEjVK0-57">
          <mxGeometry y="60" width="220" height="30" as="geometry" />
        </mxCell>
        <mxCell id="boajID1xlUHTikhEjVK0-61" value="Name: string" style="text;align=left;verticalAlign=middle;spacingLeft=4;spacingRight=4;overflow=hidden;points=[[0,0.5],[1,0.5]];portConstraint=eastwest;rotatable=0;whiteSpace=wrap;html=1;fillColor=#f5f5f5;fontColor=#000000;strokeColor=#666666;" vertex="1" parent="boajID1xlUHTikhEjVK0-57">
          <mxGeometry y="90" width="220" height="30" as="geometry" />
        </mxCell>
        <mxCell id="boajID1xlUHTikhEjVK0-62" value="RolePermission" style="swimlane;fontStyle=0;childLayout=stackLayout;horizontal=1;startSize=30;horizontalStack=0;resizeParent=1;resizeParentMax=0;resizeLast=0;collapsible=1;marginBottom=0;whiteSpace=wrap;html=1;fillColor=#647687;strokeColor=#314354;fontColor=#ffffff;" vertex="1" parent="1">
          <mxGeometry x="130" y="415" width="160" height="90" as="geometry">
            <mxRectangle x="-430" y="140" width="70" height="30" as="alternateBounds" />
          </mxGeometry>
        </mxCell>
        <mxCell id="boajID1xlUHTikhEjVK0-63" value="RoleId: int" style="text;strokeColor=#C73500;fillColor=#FAB67A;align=left;verticalAlign=middle;spacingLeft=4;spacingRight=4;overflow=hidden;points=[[0,0.5],[1,0.5]];portConstraint=eastwest;rotatable=0;whiteSpace=wrap;html=1;fontColor=#000000;" vertex="1" parent="boajID1xlUHTikhEjVK0-62">
          <mxGeometry y="30" width="160" height="30" as="geometry" />
        </mxCell>
        <mxCell id="boajID1xlUHTikhEjVK0-64" value="PermissionId: int" style="text;strokeColor=#b85450;fillColor=#E3CE46;align=left;verticalAlign=middle;spacingLeft=4;spacingRight=4;overflow=hidden;points=[[0,0.5],[1,0.5]];portConstraint=eastwest;rotatable=0;whiteSpace=wrap;html=1;" vertex="1" parent="boajID1xlUHTikhEjVK0-62">
          <mxGeometry y="60" width="160" height="30" as="geometry" />
        </mxCell>
        <mxCell id="boajID1xlUHTikhEjVK0-65" style="edgeStyle=orthogonalEdgeStyle;rounded=1;orthogonalLoop=1;jettySize=auto;html=1;endArrow=ERmandOne;endFill=0;curved=0;startArrow=ERoneToMany;startFill=0;" edge="1" parent="1" source="boajID1xlUHTikhEjVK0-63" target="boajID1xlUHTikhEjVK0-45">
          <mxGeometry relative="1" as="geometry">
            <Array as="points">
              <mxPoint x="340" y="460" />
              <mxPoint x="340" y="345" />
            </Array>
          </mxGeometry>
        </mxCell>
        <mxCell id="boajID1xlUHTikhEjVK0-66" style="edgeStyle=orthogonalEdgeStyle;rounded=1;orthogonalLoop=1;jettySize=auto;html=1;entryX=0;entryY=0.5;entryDx=0;entryDy=0;curved=0;endArrow=ERmandOne;endFill=0;startArrow=ERzeroToMany;startFill=0;" edge="1" parent="1" source="boajID1xlUHTikhEjVK0-64" target="boajID1xlUHTikhEjVK0-58">
          <mxGeometry relative="1" as="geometry">
            <Array as="points">
              <mxPoint x="60" y="490" />
              <mxPoint x="60" y="575" />
            </Array>
          </mxGeometry>
        </mxCell>
      </root>
    </mxGraphModel>
  </diagram>
</mxfile>
